<svg fill="none" height="266" width="413" xmlns="http://www.w3.org/2000/svg"><g stroke="#fff" stroke-linecap="round" stroke-width="6"><path d="M200 237.071s-34.672-27.16-98.5 0-98.5 0-98.5 0" stroke-linejoin="bevel"/><path d="M200 250.071s-34.672-27.16-98.5 0-98.5 0-98.5 0" stroke-linejoin="bevel"/><path d="M200 222.929V3H3v219.929s34.672 27.16 98.5 0 98.5 0 98.5 0zm13 0V3h197v219.929s-34.672 27.16-98.5 0-98.5 0-98.5 0z" stroke-linejoin="round"/><g stroke-linejoin="bevel"><path d="M213 237.071s34.672-27.16 98.5 0 98.5 0 98.5 0"/><path d="M213 250.071s34.672-27.16 98.5 0 98.5 0 98.5 0"/></g></g></svg>