<svg xmlns="http://www.w3.org/2000/svg" width="60" height="60" overflow="visible"><path fill="#774646" d="M29.204 0h2.694c8.562.579 14.854 3.956 19.469 8.572 4.606 4.606 8.075 10.784 8.633 19.347v2.633c-1.03 11.507-6.286 18.82-14.082 23.571-4.019 2.449-8.668 4.074-14.448 4.347-5.442.258-9.927-1.141-13.592-2.877-.477-.227-1.232-.714-1.592-.735-.473-.027-1.409.4-2.082.612A1558.616 1558.616 0 00.123 60c-.072.01-.109-.013-.123-.061 1.816-5.143 3.492-10.427 5.327-15.551-2.371-4.122-4.225-8.853-4.225-14.939 0-6.162 1.724-11.099 4.102-15.062C9.978 6.432 17.618.945 29.204 0zm-1.531 53.632c4.646.527 9.143-.344 12.551-1.775 6.694-2.812 11.653-8.297 13.959-15.429 1.312-4.058 1.404-8.885.429-12.918-1.864-7.703-6.722-13.216-13.102-16.285-3.377-1.625-7.264-2.802-12.122-2.572-9.882.467-16.898 6.184-20.694 13.102-2.013 3.669-3.327 8.46-2.816 13.714.49 5.043 2.275 8.76 4.592 12.245-1.026 2.994-2.029 6.012-3.061 9 3.219-.944 6.353-1.974 9.49-3 3.038 1.948 6.474 3.431 10.774 3.918z"/><path fill="#FFF" d="M16.898 49.714c-3.137 1.026-6.271 2.056-9.49 3 1.032-2.988 2.035-6.006 3.061-9-2.316-3.485-4.102-7.202-4.592-12.245a23.868 23.868 0 012.816-13.714C12.49 10.837 19.506 5.12 29.388 4.653c4.858-.23 8.745.946 12.122 2.571 6.38 3.07 11.238 8.582 13.103 16.286.976 4.033.884 8.86-.429 12.918-2.306 7.132-7.265 12.617-13.959 15.429-3.408 1.432-7.905 2.303-12.551 1.775-4.301-.487-7.737-1.97-10.776-3.918zm.245-30.918c-.643 1.188-1.015 2.329-.979 4.102.059 2.898 1.695 5.507 3.062 7.408 1.487 2.069 2.876 4.03 4.775 5.755 3.232 2.936 5.733 4.335 9.979 5.816 1.337.467 2.78 1.015 4.163 1.103 1.14.072 2.177-.189 2.878-.429 1.458-.497 3.184-1.574 3.857-2.878.293-.567.941-2.713.612-3.612-.156-.425-1.14-.786-1.653-1.041a169.93 169.93 0 00-3.674-1.775c-.605-.282-1.484-.729-2.021-.612-.604.132-1.454 1.505-1.775 1.898-.55.673-1.122 1.766-1.897 1.837-.481.044-1.364-.456-1.837-.674-3.548-1.633-6.127-3.956-8.143-6.979-.32-.48-.879-1.163-.857-1.714.028-.699.889-1.224 1.347-1.775.433-.521 1.102-1.303 1.102-2.082 0-.462-.493-1.261-.734-1.837-.578-1.378-.984-2.364-1.531-3.673-.219-.526-.442-1.343-1.041-1.592-.552-.229-2.038-.167-2.388-.123-1.546.199-2.614 1.711-3.245 2.877z"/><path fill="#774646" d="M20.388 15.918c.35-.045 1.836-.107 2.388.123.599.249.822 1.066 1.041 1.592.546 1.31.953 2.295 1.531 3.673.241.576.734 1.375.734 1.837 0 .778-.669 1.561-1.102 2.082-.458.552-1.319 1.077-1.347 1.775-.022.551.537 1.234.857 1.714 2.016 3.023 4.595 5.347 8.143 6.979.473.218 1.355.718 1.837.674.775-.071 1.348-1.164 1.897-1.837.321-.394 1.172-1.767 1.775-1.898.536-.116 1.415.33 2.021.612a169.93 169.93 0 013.674 1.775c.514.255 1.497.616 1.653 1.041.329.899-.319 3.045-.612 3.612-.674 1.304-2.399 2.381-3.857 2.878-.701.239-1.738.501-2.878.429-1.383-.088-2.826-.636-4.163-1.103-4.247-1.481-6.748-2.881-9.979-5.816-1.899-1.725-3.289-3.686-4.775-5.755-1.366-1.901-3.003-4.51-3.062-7.408-.036-1.773.336-2.914.979-4.102.631-1.165 1.699-2.677 3.245-2.877z"/></svg>