<svg width="123" height="124" fill="none" xmlns="http://www.w3.org/2000/svg"><g filter="url(#filter0_d)"><path fill-rule="evenodd" clip-rule="evenodd" d="M62.456 1.62L61.054.15l-1.448 1.424c-8.197 8.06-10.1 16.138-8.832 23.042a23.251 23.251 0 001.383 4.665c.05.496.12.987.21 1.47 1.034 5.634 4.547 10.052 7.467 12.435l1.5 1.224 1.271-1.46c4.172-4.785 7.057-9.7 7.347-15.024l.011-.223c.808-2.117 1.303-4.273 1.424-6.484.35-6.438-2.497-12.85-8.931-19.6zm4.749 16.02c-.599-3.597-2.512-7.453-6.237-11.72-3.937 4.314-5.789 8.437-6.355 12.182 1.199-2.159 2.864-4.347 5.083-6.528l1.448-1.424 1.401 1.47c1.938 2.032 3.487 4.034 4.66 6.02zm-1.23 9.264c-1.11 2.662-2.85 5.382-5.162 8.225-1.73-1.726-3.488-4.062-4.721-6.825-.213-3.606.95-7.836 4.967-12.364 3.485 4.087 4.877 7.67 4.916 10.964zM62 67a9 9 0 100-18 9 9 0 000 18zm8.748 20.184c-.356-4.69-2.769-9.36-7.385-14.2l-1.401-1.47-1.448 1.424c-5.14 5.054-7.31 10.143-7.596 14.827-1.596 4.163-1.82 8.174-1.144 11.85 1.241 6.757 5.46 12.071 8.97 14.935l1.5 1.223 1.272-1.459c5.075-5.822 8.524-11.735 8.87-18.095.165-3.005-.368-6.004-1.638-9.034zm-13.86 1.426c1.03-2.463 2.662-5.04 5.08-7.69 2.212 2.534 3.784 4.922 4.823 7.198.008.32.003.639-.014.955-.193 3.53-1.924 7.118-5.047 11.031-1.984-2.072-3.952-5.123-4.611-8.712a13.998 13.998 0 01-.231-2.782zm-1.219 10.066c1.478 2.514 3.326 4.522 4.983 5.874l1.5 1.223 1.272-1.459c1.909-2.19 3.548-4.407 4.793-6.678-.644 4.03-2.844 8.116-6.404 12.493-2.59-2.583-5.242-6.535-6.105-11.236a18.417 18.417 0 01-.039-.217zm47.4-79.57l.066-2.064h-2.065c-11.526 0-18.624 4.435-22.655 10.245a23.62 23.62 0 00-2.13 3.776 18.632 18.632 0 00-1.244 1.6c-3.292 4.744-3.984 10.365-3.634 14.125l.182 1.96 1.962-.151c6.243-.48 11.689-1.922 15.668-5.374 2.28-.977 4.336-2.238 6.13-3.85 4.834-4.343 7.418-10.915 7.72-20.267zm-8.326 15.035c2.275-3.022 3.765-7.204 4.213-13.043-5.6.307-9.736 1.833-12.782 3.97 2.255-.606 4.813-.943 7.701-.943h2.066l-.067 2.065c-.096 2.974-.472 5.617-1.13 7.951zm-7.695 5.651c-2.597 1.03-5.627 1.702-9.095 2.09.022-2.573.503-5.648 1.742-8.626 2.448-2.594 6.23-4.656 12.054-5.06-.496 5.59-2.198 9.204-4.701 11.596zM118.85 58.64l-1.47 1.401c-6.749 6.435-13.161 9.282-19.6 8.931-2.421-.132-4.779-.714-7.091-1.664-5.141-.43-9.905-3.267-14.548-7.314l-1.46-1.272 1.224-1.5c2.382-2.92 6.801-6.432 12.435-7.467.651-.12 1.315-.206 1.989-.254a23.081 23.081 0 014.055-1.142c6.904-1.268 14.982.635 23.042 8.833l1.424 1.448zm-27.226 4.717c-2.512-1.115-5.078-2.782-7.753-4.958 1.829-1.834 4.344-3.698 7.324-4.937 3.516-.103 7.598 1.119 11.956 4.986-4.321 3.684-8.079 5.028-11.527 4.91zm9.392 1.486c2.129-1.198 4.275-2.83 6.455-4.91l1.47-1.401-1.424-1.448c-2.004-2.038-4.013-3.61-6.001-4.781 3.579.67 7.486 2.529 11.563 6.25-4.402 3.844-8.367 5.759-12.063 6.29zm-.141 34.227l2.064.066V97.07c0-11.526-4.436-18.624-10.245-22.655a23.729 23.729 0 00-4.178-2.306 18.675 18.675 0 00-1.286-.977c-4.744-3.292-10.365-3.984-14.124-3.635l-1.96.183.151 1.962c.49 6.358 1.975 11.889 5.566 15.886l.058.065c.954 2.13 2.164 4.06 3.687 5.756 4.342 4.834 10.915 7.418 20.267 7.72zm-14.788-8.143c3.002 2.171 7.115 3.594 12.795 4.03-.315-5.758-1.92-9.97-4.153-13.039.666 2.34 1.04 5.011 1.04 8.049v2.066l-2.065-.067c-2.833-.091-5.365-.437-7.617-1.039zm-5.774-7.571c-1.1-2.664-1.811-5.796-2.214-9.403 2.477.022 5.42.47 8.293 1.608 2.71 2.44 4.89 6.273 5.305 12.28-5.427-.482-8.992-2.1-11.384-4.485zM20.26 97.939l.067-2.065c.301-9.35 2.885-15.924 7.72-20.266 1.87-1.682 4.028-2.98 6.425-3.975 3.944-3.229 9.248-4.598 15.3-5.063l1.962-.151.183 1.96c.35 3.759-.343 9.38-3.634 14.123-.39.561-.813 1.106-1.271 1.632a23.562 23.562 0 01-2.032 3.56c-4.031 5.81-11.129 10.245-22.654 10.245H20.26zm23.357-16.017c-2.448 2.589-6.227 4.645-12.043 5.047.515-5.797 2.327-9.47 4.985-11.858a.478.478 0 01.01-.01c2.547-.98 5.503-1.626 8.874-2.002-.023 2.63-.526 5.784-1.826 8.823zm-6.79 8.26c-3.007 1.995-7.027 3.407-12.388 3.7.447-5.812 1.925-9.983 4.182-13.002-.684 2.37-1.074 5.06-1.172 8.096l-.066 2.065h2.065c2.752 0 5.202-.306 7.378-.859zM5.631 54.888l-1.507 1.413 1.46 1.46c8.15 8.15 16.306 10.033 23.265 8.776a23.436 23.436 0 003.484-.914 18.581 18.581 0 002.517-.28c5.682-1.027 10.146-4.513 12.556-7.418l1.257-1.515-1.494-1.28c-4.468-3.83-9.04-6.562-13.936-7.187-2.545-1.106-5.14-1.784-7.812-1.927-6.49-.348-12.964 2.473-19.79 8.872zm16.809-4.782c-3.828.469-7.931 2.371-12.492 6.282 3.86 3.46 7.573 5.298 11.008 6.064-1.81-1.12-3.638-2.566-5.462-4.39l-1.46-1.46 1.506-1.413c2.334-2.188 4.627-3.877 6.9-5.083zm9.735 1.747c2.376 1.102 4.802 2.678 7.32 4.69-1.951 1.92-4.674 3.872-7.907 5.096-3.476.006-7.467-1.258-11.712-4.953 4.464-3.735 8.343-5.051 11.91-4.86.13.007.26.016.389.027zM21.457 16.846l2.065.066c9.351.302 15.924 2.886 20.267 7.72 1.663 1.851 2.952 3.982 3.942 6.348 3.265 3.95 4.647 9.278 5.115 15.362l.15 1.963-1.96.182c-3.758.35-9.38-.342-14.123-3.634a18.657 18.657 0 01-1.572-1.22 23.575 23.575 0 01-3.639-2.067c-5.81-4.032-10.245-11.13-10.245-22.655v-2.065zM44.27 33.09c.995 2.561 1.648 5.539 2.027 8.937-2.61-.022-5.74-.518-8.758-1.798-2.61-2.447-4.689-6.236-5.093-12.086 5.77.513 9.436 2.31 11.824 4.947zm-5.8-7.918c-2.354-.673-5.023-1.057-8.031-1.154l-2.065-.066v2.065c0 2.782.313 5.256.877 7.45-2.015-3.013-3.442-7.049-3.737-12.443 5.783.444 9.941 1.91 12.956 4.148z" fill="#FFF1F1"/></g><defs><filter id="filter0_d" x=".125" y=".15" width="122.725" height="123.624" filterUnits="userSpaceOnUse" color-interpolation-filters="sRGB"><feFlood flood-opacity="0" result="BackgroundImageFix"/><feColorMatrix in="SourceAlpha" values="0 0 0 0 0 0 0 0 0 0 0 0 0 0 0 0 0 0 127 0"/><feOffset dy="4"/><feGaussianBlur stdDeviation="2"/><feColorMatrix values="0 0 0 0 0 0 0 0 0 0 0 0 0 0 0 0 0 0 0.25 0"/><feBlend in2="BackgroundImageFix" result="effect1_dropShadow"/><feBlend in="SourceGraphic" in2="effect1_dropShadow" result="shape"/></filter></defs></svg>