<svg width="115" height="116" fill="none" xmlns="http://www.w3.org/2000/svg"><path fill-rule="evenodd" clip-rule="evenodd" d="M57.054.15l1.402 1.47c6.434 6.749 9.281 13.161 8.93 19.6-.12 2.21-.615 4.366-1.423 6.484l-.01.222c-.29 5.324-3.176 10.239-7.348 15.025l-1.272 1.459-1.5-1.224c-2.92-2.383-6.432-6.801-7.467-12.435a18.26 18.26 0 01-.209-1.47 23.24 23.24 0 01-1.383-4.665c-1.269-6.904.635-14.982 8.832-23.042L57.054.15zm-.086 5.77c3.725 4.267 5.638 8.123 6.237 11.72-1.173-1.986-2.722-3.988-4.66-6.02l-1.401-1.47-1.449 1.424c-2.218 2.181-3.883 4.37-5.083 6.528.567-3.745 2.419-7.868 6.356-12.181zm-.155 29.209c2.313-2.843 4.051-5.563 5.162-8.225-.04-3.294-1.431-6.877-4.916-10.964-4.017 4.528-5.18 8.758-4.968 12.364 1.234 2.763 2.992 5.1 4.722 6.825z" fill="#FFF1F1"/><path d="M67 58a9 9 0 11-18 0 9 9 0 0118 0z" fill="#FFF1F1"/><path fill-rule="evenodd" clip-rule="evenodd" d="M48.918 87.765c.286-4.684 2.455-9.773 7.596-14.828l1.448-1.424 1.401 1.47c4.616 4.841 7.03 9.512 7.385 14.201 1.27 3.031 1.802 6.03 1.639 9.035-.347 6.36-3.796 12.273-8.871 18.095l-1.272 1.459-1.5-1.223c-3.51-2.864-7.73-8.178-8.97-14.934-.676-3.677-.452-7.688 1.144-11.85zm2.751 10.912l.039.216c.863 4.701 3.515 8.653 6.105 11.236 3.56-4.377 5.76-8.463 6.404-12.493-1.245 2.271-2.884 4.488-4.794 6.678l-1.272 1.459-1.5-1.223c-1.657-1.352-3.504-3.36-4.982-5.873zm1.219-10.067c1.03-2.463 2.662-5.04 5.08-7.69 2.211 2.534 3.784 4.922 4.823 7.198.008.32.003.639-.015.955-.192 3.53-1.924 7.118-5.046 11.031-1.984-2.072-3.952-5.123-4.611-8.712a13.997 13.997 0 01-.231-2.782zm46.247-71.568l-.067 2.064c-.301 9.352-2.885 15.924-7.72 20.267-1.793 1.612-3.85 2.873-6.129 3.85-3.98 3.452-9.425 4.893-15.668 5.373l-1.962.151-.183-1.96c-.35-3.759.343-9.38 3.635-14.123.381-.55.796-1.085 1.244-1.601a23.616 23.616 0 012.13-3.776c4.031-5.81 11.129-10.245 22.654-10.245h2.066zm-4.179 4.056c-.449 5.839-1.939 10.021-4.213 13.043.659-2.334 1.035-4.977 1.131-7.951l.067-2.065h-2.066c-2.888 0-5.446.337-7.701.943 3.046-2.137 7.182-3.663 12.782-3.97zM73.952 41.882c3.47-.388 6.5-1.06 9.096-2.09 2.503-2.392 4.204-6.006 4.7-11.595-5.824.403-9.605 2.465-12.053 5.06-1.239 2.977-1.72 6.052-1.742 8.625zM113.38 60.04l1.47-1.401-1.424-1.448c-8.06-8.198-16.138-10.101-23.042-8.833-1.418.26-2.773.653-4.055 1.142-.675.048-1.338.134-1.99.254-5.633 1.035-10.052 4.547-12.434 7.467l-1.224 1.5 1.46 1.272c4.642 4.047 9.407 6.883 14.548 7.314 2.312.95 4.67 1.532 7.092 1.664 6.438.351 12.85-2.496 19.599-8.93zm-16.364 4.803c3.695-.532 7.661-2.447 12.063-6.29-4.077-3.722-7.984-5.58-11.563-6.251 1.987 1.172 3.997 2.743 6.001 4.78l1.424 1.449-1.47 1.402c-2.181 2.079-4.327 3.71-6.455 4.91zm-9.393-1.487c-2.51-1.115-5.077-2.782-7.752-4.958 1.829-1.834 4.343-3.698 7.324-4.937 3.516-.103 7.598 1.119 11.956 4.986-4.321 3.684-8.08 5.028-11.528 4.91zm11.316 35.779l-2.065-.067c-9.35-.301-15.924-2.885-20.266-7.72-1.523-1.695-2.733-3.625-3.687-5.755l-.058-.065c-3.59-3.997-5.077-9.528-5.566-15.886l-.151-1.962 1.96-.183c3.76-.35 9.38.343 14.124 3.635.438.304.868.63 1.286.977 1.423.61 2.83 1.37 4.178 2.306 5.81 4.031 10.245 11.13 10.245 22.655v2.065zm-4.057-4.179c-5.68-.436-9.793-1.859-12.795-4.03 2.252.602 4.784.948 7.617 1.039l2.064.066v-2.065c0-3.038-.373-5.71-1.039-8.049 2.233 3.07 3.838 7.28 4.153 13.04zM74.1 73.953c.403 3.606 1.113 6.738 2.214 9.402 2.391 2.384 5.957 4.003 11.384 4.485-.416-6.007-2.596-9.84-5.305-12.28-2.873-1.139-5.816-1.586-8.293-1.607zM16.328 95.874l-.067 2.065h2.066c11.525 0 18.623-4.436 22.654-10.245a23.562 23.562 0 002.032-3.56c.458-.526.881-1.071 1.27-1.632 3.292-4.743 3.984-10.364 3.635-14.124l-.183-1.96-1.962.151c-6.053.466-11.356 1.835-15.3 5.064-2.397.994-4.554 2.293-6.426 3.975-4.834 4.342-7.418 10.915-7.72 20.266zM32.57 75.102c2.547-.981 5.503-1.627 8.873-2.003-.022 2.63-.525 5.784-1.825 8.823-2.448 2.589-6.227 4.645-12.043 5.047.515-5.797 2.327-9.47 4.985-11.858l.01-.01zm-12.13 18.78c.447-5.812 1.925-9.983 4.182-13.002-.684 2.37-1.074 5.06-1.172 8.096l-.067 2.065h2.066c2.752 0 5.202-.306 7.378-.859-3.006 1.995-7.026 3.407-12.387 3.7zM.125 56.301l1.507-1.413c6.826-6.399 13.3-9.22 19.79-8.872 2.672.143 5.267.82 7.812 1.928 4.896.624 9.468 3.355 13.936 7.185l1.494 1.281-1.257 1.515c-2.41 2.906-6.874 6.39-12.556 7.417-.821.148-1.66.244-2.517.28a23.45 23.45 0 01-3.485.915c-6.958 1.257-15.114-.626-23.263-8.775L.126 56.3zm5.823.087c4.561-3.91 8.665-5.813 12.493-6.282-2.273 1.206-4.566 2.895-6.9 5.083l-1.507 1.413 1.46 1.46c1.825 1.824 3.652 3.27 5.463 4.39-3.435-.766-7.148-2.605-11.009-6.064zm29.548.155c-2.518-2.012-4.944-3.588-7.32-4.69-.13-.011-.26-.02-.39-.027-3.566-.191-7.445 1.125-11.909 4.86 4.244 3.695 8.236 4.959 11.712 4.953 3.233-1.224 5.956-3.177 7.907-5.096zM19.522 16.912l-2.065-.066v2.065c0 11.526 4.436 18.623 10.245 22.655 1.177.817 2.4 1.5 3.638 2.067.508.439 1.033.845 1.573 1.22 4.743 3.292 10.364 3.984 14.124 3.634l1.96-.182-.152-1.963c-.468-6.084-1.849-11.411-5.114-15.362-.99-2.366-2.28-4.497-3.943-6.348-4.342-4.835-10.915-7.418-20.266-7.72zM33.539 40.23c-2.61-2.447-4.689-6.236-5.093-12.086 5.77.513 9.436 2.31 11.824 4.947.994 2.561 1.648 5.539 2.027 8.937-2.611-.022-5.74-.518-8.758-1.798zm-8.288-6.763c-2.015-3.011-3.442-7.048-3.737-12.442 5.783.444 9.941 1.91 12.956 4.148-2.354-.673-5.023-1.057-8.031-1.154l-2.065-.066v2.065c0 2.782.313 5.256.877 7.45z" fill="#FFF1F1"/></svg>