<svg fill="none" height="34" width="35" xmlns="http://www.w3.org/2000/svg"><g fill="#fff"><path d="M25.106 0H9.57C4.293 0 0 4.109 0 9.16v14.87c0 5.051 4.293 9.16 9.569 9.16h15.537c5.277 0 9.57-4.11 9.57-9.16V9.16c0-5.05-4.293-9.159-9.57-9.159zM31.6 24.031c0 3.427-2.912 6.215-6.493 6.215H9.57c-3.58 0-6.492-2.788-6.492-6.215V9.16c0-3.426 2.912-6.214 6.492-6.214h15.537c3.58 0 6.493 2.788 6.493 6.214v14.872z"/><path d="M17.338 8.044c-4.927 0-8.935 3.836-8.935 8.552 0 4.716 4.008 8.552 8.935 8.552 4.927 0 8.935-3.836 8.935-8.552 0-4.716-4.008-8.552-8.935-8.552zm0 14.16c-3.23 0-5.859-2.516-5.859-5.608 0-3.092 2.628-5.607 5.859-5.607 3.23 0 5.858 2.515 5.858 5.607s-2.628 5.607-5.858 5.607zm9.309-16.657c-.592 0-1.175.23-1.593.632-.421.4-.663.958-.663 1.527 0 .568.242 1.125.663 1.528a2.326 2.326 0 003.189 0c.42-.403.66-.96.66-1.528 0-.569-.24-1.126-.66-1.527-.418-.402-1-.632-1.596-.632z"/></g></svg>