<svg width="41" height="43" fill="none" xmlns="http://www.w3.org/2000/svg"><path fill-rule="evenodd" clip-rule="evenodd" d="M29.685 0h-18.37C5.074 0 0 5.323 0 11.866v19.268C0 37.677 5.076 43 11.314 43h18.371C35.925 43 41 37.677 41 31.134V11.866C41 5.323 35.924 0 29.685 0zm7.677 31.134c0 4.44-3.443 8.05-7.677 8.05h-18.37c-4.234.001-7.677-3.61-7.677-8.05V11.866c0-4.439 3.443-8.05 7.676-8.05h18.371c4.233 0 7.677 3.611 7.677 8.05v19.268zM20.5 10.53c-5.79 0-10.5 4.92-10.5 10.97 0 6.047 4.71 10.968 10.5 10.968S31 27.549 31 21.5s-4.71-10.97-10.5-10.97zm0 18.16c-3.796 0-6.884-3.225-6.884-7.191 0-3.966 3.088-7.192 6.884-7.192 3.796 0 6.885 3.226 6.885 7.192s-3.089 7.192-6.885 7.192zm9.234-20.77c.464-.572 1.11-.899 1.766-.899.66 0 1.304.327 1.768.9.466.569.732 1.362.732 2.171 0 .808-.266 1.6-.732 2.173-.466.57-1.109.9-1.768.9-.657 0-1.302-.33-1.766-.9-.466-.572-.734-1.365-.734-2.172 0-.81.268-1.603.734-2.173z" fill="#fff"/></svg>