<svg width="115" height="116" fill="none" xmlns="http://www.w3.org/2000/svg"><path d="M67 58a9 9 0 11-18 0 9 9 0 0118 0zm-9.992-20c-6.484-5.29-15.562-19.698 0-35 12.417 13.023 9.934 23.605 0 35zm1 75c-6.484-5.291-15.562-19.698 0-35 12.417 13.023 9.934 23.605 0 35zm14.034-68.93c-.776-8.343 3.143-25.028 25.028-25.028-.582 18.043-9.895 23.864-25.028 25.028zM77 58.593c5.29-6.485 19.698-15.563 35 0-13.023 12.417-23.605 9.933-35 0zm-5.089 13.449c8.343-.776 25.028 3.143 25.028 25.028-18.043-.582-23.864-9.895-25.028-25.028zm-28.557-1.131c.776 8.343-3.143 25.028-25.027 25.028.582-18.043 9.894-23.864 25.027-25.028zm-4.959-14.564c-5.35 6.448-19.92 15.475-35.395 0 13.17-12.347 23.87-9.877 35.395 0zm6.09-12.408c-8.343.776-25.028-3.143-25.028-25.028 18.044.582 23.864 9.895 25.028 25.028z" stroke="#FFF1F1" stroke-width="4"/><path d="M57.098 41.636c-5.306-4.328-12.733-16.116 0-28.636 10.16 10.655 8.127 19.313 0 28.636zM57.916 103c-5.305-4.329-12.733-16.116 0-28.636 10.16 10.655 8.127 19.313 0 28.636zm11.482-56.398c-.635-6.825 2.572-20.477 20.477-20.477C89.4 40.888 81.78 45.65 69.398 46.602zm4.057 11.883c4.328-5.305 16.116-12.733 28.636 0-10.655 10.16-19.313 8.127-28.636 0zm-4.164 11.004c6.826-.635 20.477 2.571 20.477 20.477-14.762-.476-19.524-8.096-20.477-20.477zm-23.365-.925c.635 6.825-2.571 20.477-20.477 20.477.476-14.763 8.096-19.525 20.477-20.477zm-4.058-11.916c-4.377 5.275-16.298 12.661-28.959 0 10.776-10.102 19.53-8.082 28.96 0zm4.983-10.152c-6.825.634-20.477-2.572-20.477-20.478 14.763.476 19.525 8.096 20.477 20.478z" stroke="#FFF1F1" stroke-width="4"/></svg>