<svg fill="none" height="33" width="33" xmlns="http://www.w3.org/2000/svg"><clipPath id="a"><path d="M.102.409h32.166v32.404H.102z"/></clipPath><g clip-path="url(#a)" fill="#fff"><path d="M15.767.409h1.445c4.593.313 7.968 2.137 10.444 4.632 2.47 2.49 4.33 5.827 4.63 10.454v1.423c-.552 6.218-3.372 10.17-7.553 12.737-2.156 1.324-4.65 2.202-7.75 2.35-2.92.139-5.326-.617-7.291-1.556-.256-.122-.661-.385-.854-.396-.254-.016-.756.216-1.117.33-2.522.805-5.04 1.62-7.553 2.448-.04.006-.06-.007-.066-.033.974-2.779 1.873-5.634 2.857-8.403C1.687 22.168.693 19.612.693 16.322c0-3.33.924-5.997 2.2-8.138C5.454 3.884 9.552.92 15.767.409zm-.821 28.982a13.68 13.68 0 006.733-.96c3.59-1.52 6.25-4.484 7.487-8.337.704-2.193.754-4.802.23-6.981-1-4.163-3.606-7.141-7.028-8.8-1.811-.878-3.896-1.514-6.502-1.39-5.301.253-9.064 3.342-11.1 7.08a12.974 12.974 0 00-1.512 7.411c.263 2.726 1.221 4.734 2.463 6.617-.55 1.618-1.088 3.249-1.642 4.863 1.727-.51 3.408-1.066 5.09-1.62 1.63 1.051 3.474 1.853 5.78 2.117z"/><path d="M11.038 9.01c.188-.024.985-.057 1.281.067.321.134.44.576.558.86.294.708.512 1.24.822 1.985.129.31.394.742.394.992 0 .421-.36.844-.591 1.125-.246.299-.708.582-.723.96-.012.298.288.667.46.926 1.082 1.634 2.465 2.89 4.368 3.772.254.118.727.388.985.364.417-.039.723-.63 1.018-.992.173-.213.629-.955.953-1.026.287-.063.758.178 1.083.33.7.33 1.262.607 1.97.96.276.137.804.333.887.563.177.485-.17 1.644-.328 1.951-.36.704-1.287 1.287-2.07 1.555-.375.13-.931.271-1.543.232-.742-.048-1.516-.344-2.233-.596-2.278-.8-3.62-1.557-5.353-3.143-1.02-.932-1.764-1.992-2.562-3.11-.733-1.027-1.61-2.437-1.642-4.003-.02-.959.18-1.575.525-2.217.339-.63.912-1.447 1.74-1.554z"/></g></svg>