<svg fill="none" height="266" viewBox="0 0 413 266" width="413" xmlns="http://www.w3.org/2000/svg"><g stroke="#fff" stroke-linecap="round" stroke-width="6"><path d="m200 237.071s-34.672-27.16-98.5 0-98.5 0-98.5 0" stroke-linejoin="bevel"/><path d="m200 250.071s-34.672-27.16-98.5 0-98.5 0-98.5 0" stroke-linejoin="bevel"/><path d="m200 222.929v-219.929h-98.5-98.5v219.929s34.672 27.16 98.5 0 98.5 0 98.5 0z" stroke-linejoin="round"/><path d="m213 222.929v-219.929h98.5 98.5v219.929s-34.672 27.16-98.5 0-98.5 0-98.5 0z" stroke-linejoin="round"/><g stroke-linejoin="bevel"><path d="m213 237.071s34.672-27.16 98.5 0 98.5 0 98.5 0"/><path d="m213 250.071s34.672-27.16 98.5 0 98.5 0 98.5 0"/></g></g></svg>