<?xml version="1.0" encoding="utf-8"?>
<!-- Generator: Adobe Illustrator 15.0.0, SVG Export Plug-In  -->
<!DOCTYPE svg PUBLIC "-//W3C//DTD SVG 1.1//EN" "http://www.w3.org/Graphics/SVG/1.1/DTD/svg11.dtd" [
	<!ENTITY ns_flows "http://ns.adobe.com/Flows/1.0/">
]>
<svg version="1.1"
	 xmlns="http://www.w3.org/2000/svg" xmlns:xlink="http://www.w3.org/1999/xlink" xmlns:a="http://ns.adobe.com/AdobeSVGViewerExtensions/3.0/"
	 x="0px" y="0px" width="60px" height="60px" viewBox="0 0 60 60" overflow="visible" enable-background="new 0 0 60 60"
	 xml:space="preserve">
<defs>
</defs>
<path fill="#774646" d="M29.204,0C30.102,0,31,0,31.898,0c8.562,0.579,14.854,3.956,19.469,8.572
	c4.606,4.606,8.075,10.784,8.633,19.347c0,0.877,0,1.755,0,2.633c-1.03,11.507-6.286,18.82-14.082,23.571
	c-4.019,2.449-8.668,4.074-14.448,4.347c-5.442,0.258-9.927-1.141-13.592-2.877c-0.477-0.227-1.232-0.714-1.592-0.735
	c-0.473-0.027-1.409,0.4-2.082,0.612C9.59,56.923,4.578,58.549,0.123,60C0.051,60.01,0.014,59.987,0,59.939
	c1.816-5.143,3.492-10.427,5.327-15.551c-2.371-4.122-4.225-8.853-4.225-14.939c0-6.162,1.724-11.099,4.102-15.062
	C9.978,6.432,17.618,0.945,29.204,0z M27.673,53.632c4.646,0.527,9.143-0.344,12.551-1.775c6.694-2.812,11.653-8.297,13.959-15.429
	c1.312-4.058,1.404-8.885,0.429-12.918C52.748,15.807,47.89,10.294,41.51,7.225C38.133,5.6,34.246,4.423,29.388,4.653
	C19.506,5.12,12.49,10.837,8.694,17.755c-2.013,3.669-3.327,8.46-2.816,13.714c0.49,5.043,2.275,8.76,4.592,12.245
	c-1.026,2.994-2.029,6.012-3.061,9c3.219-0.944,6.353-1.974,9.49-3C19.937,51.662,23.373,53.145,27.673,53.632z"/>
<path fill="#FFFFFF" d="M16.898,49.714c-3.137,1.026-6.271,2.056-9.49,3c1.032-2.988,2.035-6.006,3.061-9
	c-2.316-3.485-4.102-7.202-4.592-12.245c-0.51-5.254,0.803-10.045,2.816-13.714C12.49,10.837,19.506,5.12,29.388,4.653
	c4.858-0.23,8.745,0.946,12.122,2.571c6.38,3.07,11.238,8.582,13.103,16.286c0.976,4.033,0.884,8.86-0.429,12.918
	c-2.306,7.132-7.265,12.617-13.959,15.429c-3.408,1.432-7.905,2.303-12.551,1.775C23.373,53.145,19.937,51.662,16.898,49.714z
	 M17.143,18.796c-0.643,1.188-1.015,2.329-0.979,4.102c0.059,2.898,1.695,5.507,3.062,7.408c1.487,2.069,2.876,4.03,4.775,5.755
	c3.232,2.936,5.733,4.335,9.979,5.816c1.337,0.467,2.78,1.015,4.163,1.103c1.14,0.072,2.177-0.189,2.878-0.429
	c1.458-0.497,3.184-1.574,3.857-2.878c0.293-0.567,0.941-2.713,0.612-3.612c-0.156-0.425-1.14-0.786-1.653-1.041
	c-1.322-0.653-2.368-1.166-3.674-1.775c-0.605-0.282-1.484-0.729-2.021-0.612c-0.604,0.132-1.454,1.505-1.775,1.898
	c-0.55,0.673-1.122,1.766-1.897,1.837c-0.481,0.044-1.364-0.456-1.837-0.674c-3.548-1.633-6.127-3.956-8.143-6.979
	c-0.32-0.48-0.879-1.163-0.857-1.714c0.028-0.699,0.889-1.224,1.347-1.775c0.433-0.521,1.102-1.303,1.102-2.082
	c0-0.462-0.493-1.261-0.734-1.837c-0.578-1.378-0.984-2.364-1.531-3.673c-0.219-0.526-0.442-1.343-1.041-1.592
	c-0.552-0.229-2.038-0.167-2.388-0.123C18.842,16.118,17.774,17.63,17.143,18.796z"/>
<path fill="#774646" d="M20.388,15.918c0.35-0.045,1.836-0.107,2.388,0.123c0.599,0.249,0.822,1.066,1.041,1.592
	c0.546,1.31,0.953,2.295,1.531,3.673c0.241,0.576,0.734,1.375,0.734,1.837c0,0.778-0.669,1.561-1.102,2.082
	c-0.458,0.552-1.319,1.077-1.347,1.775c-0.022,0.551,0.537,1.234,0.857,1.714c2.016,3.023,4.595,5.347,8.143,6.979
	c0.473,0.218,1.355,0.718,1.837,0.674c0.775-0.071,1.348-1.164,1.897-1.837c0.321-0.394,1.172-1.767,1.775-1.898
	c0.536-0.116,1.415,0.33,2.021,0.612c1.306,0.609,2.352,1.122,3.674,1.775c0.514,0.255,1.497,0.616,1.653,1.041
	c0.329,0.899-0.319,3.045-0.612,3.612c-0.674,1.304-2.399,2.381-3.857,2.878c-0.701,0.239-1.738,0.501-2.878,0.429
	c-1.383-0.088-2.826-0.636-4.163-1.103c-4.247-1.481-6.748-2.881-9.979-5.816c-1.899-1.725-3.289-3.686-4.775-5.755
	c-1.366-1.901-3.003-4.51-3.062-7.408c-0.036-1.773,0.336-2.914,0.979-4.102C17.774,17.63,18.842,16.118,20.388,15.918z"/>
</svg>
