<svg width="41" height="43" viewBox="0 0 41 43" fill="none" xmlns="http://www.w3.org/2000/svg">
<path fill-rule="evenodd" clip-rule="evenodd" d="M29.6852 0H11.3143C5.07559 0 0 5.32343 0 11.8664V31.1336C0 37.6768 5.07559 43 11.3143 43H29.6852C35.9244 43 41 37.6766 41 31.1336V11.8664C41.0002 5.32343 35.9244 0 29.6852 0ZM37.3625 31.1336C37.3625 35.5731 33.9186 39.1848 29.6855 39.1848H11.3143C7.08143 39.1851 3.63772 35.5731 3.63772 31.1336V11.8664C3.63772 7.42711 7.08143 3.81517 11.3143 3.81517H29.6852C33.9183 3.81517 37.3623 7.42711 37.3623 11.8664V31.1336H37.3625ZM20.5 10.5308C14.7102 10.5308 10 15.4515 10 21.5001C10 27.5485 14.7102 32.469 20.5 32.469C26.2898 32.469 31 27.5485 31 21.5001C31 15.4515 26.2898 10.5308 20.5 10.5308ZM20.5 28.6917C16.704 28.6917 13.6155 25.4656 13.6155 21.4999C13.6155 17.534 16.7038 14.3076 20.5 14.3076C24.2962 14.3076 27.3846 17.534 27.3846 21.4999C27.3846 25.4656 24.296 28.6917 20.5 28.6917ZM29.7341 7.91914C30.198 7.34672 30.8432 7.02002 31.5 7.02002C32.1591 7.02002 32.8045 7.34672 33.2682 7.91914C33.7341 8.48876 34 9.28178 34 10.0915C34 10.8985 33.7341 11.6915 33.2682 12.2639C32.8023 12.8336 32.1591 13.1631 31.5 13.1631C30.8432 13.1631 30.1977 12.8336 29.7341 12.2639C29.2682 11.6915 29 10.8988 29 10.0915C29 9.28178 29.268 8.48876 29.7341 7.91914Z" fill="white"/>
</svg>
