<svg fill="none" height="34" viewBox="0 0 35 34" width="35" xmlns="http://www.w3.org/2000/svg"><g fill="#fff"><path d="m25.1062 0h-15.5372c-5.27634 0-9.569 4.10905-9.569 9.15947v14.87193c0 5.0506 4.29266 9.1594 9.569 9.1594h15.5372c5.2767 0 9.5694-4.109 9.5694-9.1594v-14.87193c.0002-5.05042-4.2927-9.15947-9.5694-9.15947zm6.493 24.0314c0 3.4268-2.9127 6.2146-6.4928 6.2146h-15.5374c-3.57992.0002-6.49242-2.7878-6.49242-6.2146v-14.87193c0-3.42663 2.9125-6.21462 6.49242-6.21462h15.5372c3.5801 0 6.4928 2.78799 6.4928 6.21462v14.87193z"/><path d="m17.3378 8.04395c-4.9269 0-8.93509 3.83645-8.93509 8.55225 0 4.7156 4.00819 8.5518 8.93509 8.5518 4.9268 0 8.935-3.8362 8.935-8.5518 0-4.7158-4.0082-8.55225-8.935-8.55225zm0 14.15915c-3.2303 0-5.8585-2.5153-5.8585-5.6071 0-3.092 2.628-5.6075 5.8585-5.6075 3.2304 0 5.8584 2.5155 5.8584 5.6075 0 3.0918-2.6282 5.6071-5.8584 5.6071z"/><path d="m26.6473 5.54688c-.5928 0-1.1751.22969-1.5937.63215-.4207.4005-.6625.95805-.6625 1.52738 0 .56757.242 1.12492.6625 1.52738.4184.4005 1.0009.63216 1.5937.63216.5948 0 1.1752-.23166 1.5957-.63216.4205-.40246.6604-.96001.6604-1.52738 0-.56933-.2399-1.12688-.6604-1.52738-.4184-.40246-1.0009-.63215-1.5957-.63215z"/></g></svg>