<svg fill="none" height="31" viewBox="0 0 42 31" width="42" xmlns="http://www.w3.org/2000/svg"><path d="m38.0625 0h-34.12497c-2.17129 0-3.93753 1.7382-3.93753 3.87502v23.24998c0 2.1368 1.76624 3.875 3.93753 3.875h34.12497c2.1713 0 3.9375-1.7382 3.9375-3.875v-23.24998c0-2.13682-1.7662-3.87502-3.9375-3.87502zm0 2.58332c.1783 0 .3479.03641.503.1l-17.5655 14.98248-17.56562-14.98248c.15509-.0635.32473-.1.50306-.1zm0 25.83328h-34.12497c-.72417 0-1.31254-.5789-1.31254-1.2917v-21.71228l17.51491 14.93868c.2474.2106.5538.3153.8601.3153s.6127-.1046.8601-.3153l17.5149-14.93868v21.71238c-.0001.7127-.5884 1.2916-1.3125 1.2916z" fill="#fff"/></svg>