<svg fill="none" height="33" viewBox="0 0 33 33" width="33" xmlns="http://www.w3.org/2000/svg" xmlns:xlink="http://www.w3.org/1999/xlink"><clipPath id="a"><path d="m.101562.408936h32.1668v32.4042h-32.1668z"/></clipPath><g clip-path="url(#a)" fill="#fff"><path d="m15.7668.408936h1.4451c4.5934.3127 7.9677 2.137464 10.4438 4.631784 2.4712 2.48945 4.3312 5.82748 4.6308 10.45478v1.4226c-.5529 6.2184-3.3723 10.1701-7.5536 12.7373-2.1556 1.3237-4.6493 2.2014-7.7506 2.3489-2.9187.1393-5.3248-.6161-7.2906-1.555-.25573-.1219-.66103-.3852-.85403-.3966-.25372-.0154-.75592.2163-1.11659.3306-2.52163.8042-5.03951 1.6202-7.553576 2.4481-.0386.0053-.058704-.0073-.065942-.0332.974248-2.7791 1.873318-5.6343 2.857218-8.4036-1.2718-2.227-2.266152-4.7829-2.266152-8.0723 0-3.3296.924792-5.9973 2.200212-8.13878 2.56128-4.29923 6.65893-7.263813 12.87396-7.774584zm-.8211 28.981564c2.4922.2847 4.9047-.1859 6.733-.9596 3.591-1.5193 6.2512-4.4835 7.4876-8.3372.704-2.1926.7535-4.8015.23-6.9807-1-4.16271-3.6059-7.14147-7.0281-8.80016-1.8114-.87775-3.8962-1.51369-6.5025-1.38934-5.3007.25235-9.06419 3.34169-11.10035 7.0799-1.08 1.9828-1.78486 4.5715-1.51104 7.4109.26297 2.7252 1.22073 4.7334 2.46277 6.6165-.55045 1.6182-1.08804 3.2489-1.64171 4.8635 1.72655-.5104 3.40767-1.0665 5.0904-1.621 1.63003 1.0519 3.47323 1.8535 5.77993 2.1172z"/><path d="m11.0379 9.01063c.1878-.02471.9852-.05793 1.2811.06602.3213.13448.4407.57599.5585.86033.2931.70762.511 1.24032.821 1.98472.1295.3111.3941.7425.3941.9928 0 .4205-.3591.8433-.5911 1.1249-.2457.2981-.7077.582-.7225.9595-.0117.2977.2879.6667.46.9264 1.0816 1.6336 2.4647 2.8892 4.3678 3.7718.2541.1175.7274.3877.9855.3638.4162-.0389.723-.6295 1.0177-.9924.1729-.2122.6285-.9547.9525-1.0256.2871-.0628.7588.1778 1.0837.3305.7.3289 1.2617.6064 1.9702.9596.2758.1373.8033.333.887.5626.1765.4857-.1713 1.6449-.3285 1.9516-.3607.7039-1.2867 1.2864-2.0692 1.555-.3759.1292-.932.2709-1.5436.2317-.7418-.0474-1.5162-.3435-2.2331-.5959-2.2783-.8008-3.6196-1.557-5.3534-3.1428-1.0189-.932-1.764-1.992-2.5617-3.11-.73299-1.0276-1.61075-2.4372-1.64211-4.0035-.0193-.9584.18014-1.5745.52553-2.2165.33855-.62943.91188-1.44683 1.74058-1.55457z"/></g></svg>